<svg id="Capa_1" enable-background="new 0 0 512 512" height="512" viewBox="0 0 512 512" width="512" xmlns="http://www.w3.org/2000/svg"><g><g><path d="m434.5 290.25s-66.54 74.4-66.54 112.044 29.16 77.956 66.54 77.956c28.94 0 70-4.425 70-44.253 0-44.531-25.66-69.187-70-145.747" fill="#7e8b96"/><path d="m77.5 290.25c-44.34 76.56-70 101.216-70 145.747 0 39.829 41.06 44.253 70 44.253 37.38 0 66.54-40.311 66.54-77.956s-66.54-112.044-66.54-112.044" fill="#7e8b96"/><path d="m434.5 374.75s-38.607 14.74-38.607 66.893c0 24.073 14.907 38.607 38.607 38.607 28.94 0 70-4.425 70-44.253 0-44.531-70-61.247-70-61.247" fill="#a2abb8"/><path d="m77.5 374.75s-70 16.716-70 61.247c0 39.829 41.06 44.253 70 44.253 23.7 0 38.607-14.534 38.607-38.607 0-52.153-38.607-66.893-38.607-66.893" fill="#a2abb8"/><path d="m77.5 480.25c0 8.25 6.75 15 15 15h327c8.25 0 15-6.75 15-15l-184.385-10z" fill="#c8d2dc"/><path d="m434.5 480.25v-7.51c0-4.119-3.371-7.49-7.49-7.49l-171.01-15-171.01 15c-4.119 0-7.49 3.371-7.49 7.49v7.51z" fill="#e9edf1"/><path d="m256 255.25c-84.6 0-136.022-20-136.022-20s9.739-70.227 39.939-111.54c17.921-24.515 47.69-45.82 96.083-45.82s78.162 21.305 96.083 45.82c30.2 41.312 39.939 111.54 39.939 111.54s-51.422 20-136.022 20z" fill="#4e5a61"/><path d="m332.044 235.25h-152.088l-6.922-44.12s-53.056-107.969 82.966-107.969 82.966 107.969 82.966 107.969z" fill="#bcd1e1"/><path d="m198.257 142.073c-27.591 0-40.119 6.989-40.119 18.36 0 27.989 15.382 44.817 42.973 44.817s41.973-13.975 41.973-41.964c0-11.371-17.236-21.213-44.827-21.213z" fill="#f9c8dc"/><path d="m313.743 142.073c27.591 0 40.119 6.989 40.119 18.36 0 27.989-15.382 44.817-42.973 44.817s-41.973-13.975-41.973-41.964c.001-11.371 17.236-21.213 44.827-21.213z" fill="#f9c8dc"/><path d="m256 107.89c48.393 0 78.162 21.305 96.083 45.82 30.2 41.312 39.939 81.54 39.939 81.54-23.264-113.795-30.305-218.5-136.022-218.5s-112.758 104.705-136.022 218.5c0 0 9.739-40.227 39.939-81.54 17.921-24.515 47.69-45.82 96.083-45.82z" fill="#a2abb8"/><path d="m419.5 465.25h-327c-8.25 0-15-6.75-15-15v-200c0-8.25 6.75-15 15-15h.977l341.023 213.366v1.634c0 8.25-6.75 15-15 15z" fill="#c8d2dc"/><path d="m419.5 235.25h-326.023v198.366c0 8.25 6.75 15 15 15h326.023v-198.366c0-8.25-6.75-15-15-15z" fill="#e9edf1"/></g><g><path d="m472.25 337.868c-1.67-2.661-3.39-5.401-5.159-8.229-2.197-3.512-6.824-4.579-10.336-2.382-3.512 2.196-4.578 6.824-2.382 10.336 1.773 2.835 3.498 5.582 5.171 8.249 10.941 17.433 19.647 31.314 25.907 44.122-15.677-11.584-34.208-18.139-43.453-20.921v-118.793c0-12.407-10.093-22.5-22.5-22.5h-21.338c-2.069-10.33-4.036-20.618-5.942-30.619-12.413-65.133-23.133-121.384-55.13-155.756-2.824-3.032-7.569-3.201-10.6-.379-3.032 2.823-3.202 7.568-.379 10.6 24.264 26.064 35.478 68.223 45.494 118.03-3.967-6.629-8.441-13.465-13.468-20.341-23.38-31.988-58.698-48.895-102.135-48.895s-78.755 16.907-102.137 48.894c-5.026 6.876-9.5 13.712-13.468 20.342 16.758-83.339 36.888-145.376 115.605-145.376 20.525 0 37.401 4.052 51.593 12.387 3.571 2.096 8.168.903 10.266-2.669s.902-8.168-2.669-10.266c-16.559-9.724-35.92-14.452-59.19-14.452-45.565 0-78.042 18.91-99.288 57.81-18.652 34.151-27.532 80.743-36.932 130.072-1.906 10.001-3.873 20.289-5.942 30.619h-21.338c-12.407 0-22.5 10.093-22.5 22.5v37.977c-11.357 19.534-21.38 35.509-30.25 49.64-24.788 39.494-39.75 63.333-39.75 98.129 0 20.529 9.902 35.72 28.637 43.932 13.652 5.984 29.883 7.447 42.628 7.748 3.075 8.767 11.43 15.073 21.235 15.073h327c9.805 0 18.16-6.306 21.235-15.073 12.745-.302 28.976-1.765 42.628-7.748 18.735-8.212 28.637-23.404 28.637-43.932 0-34.795-14.962-58.634-39.75-98.129zm-90.305-110.118h-37.741l5.483-30.954c4.372-5.158 7.55-11.466 9.479-18.688 12.165 20.553 19.269 39.066 22.779 49.642zm-36.856-70.86c.011.014.022.029.033.043.817 1.066 1.24 2.235 1.24 3.499 0 17.024-6.154 37.317-35.473 37.317-23.519 0-34.473-10.951-34.473-34.464 0-5.605 13.292-13.713 37.326-13.713 16.578.001 27.732 2.675 31.347 7.318zm-22.429-22.058c-2.81-.169-5.774-.259-8.917-.259-23.26 0-41.217 6.733-48.623 17.306-2.481-.652-5.488-1.028-9.119-1.028s-6.639.377-9.119 1.028c-7.406-10.573-25.363-17.306-48.623-17.306-3.144 0-6.107.089-8.918.259 18.102-12.913 40.403-19.441 66.66-19.441 26.256-.001 48.557 6.527 66.659 19.441zm-157.022 25.601c0-1.267.424-2.438 1.245-3.506.008-.011.017-.022.025-.033 3.612-4.645 14.768-7.321 31.349-7.321 24.034 0 37.326 8.108 37.326 13.713 0 23.513-10.954 34.464-34.473 34.464-29.318 0-35.472-20.293-35.472-37.317zm-12.804 17.675c1.929 7.222 5.107 13.53 9.479 18.688l5.483 30.954h-37.741c3.511-10.578 10.614-29.091 22.779-49.642zm-137.834 257.889c0-30.478 13.304-51.675 37.455-90.155 5.406-8.613 11.24-17.91 17.545-28.279v51.494c-5.556 1.685-14.517 4.749-24.189 9.446-3.726 1.81-5.28 6.297-3.47 10.023 1.297 2.671 3.97 4.226 6.752 4.226 1.099 0 2.216-.243 3.271-.755 6.554-3.183 12.81-5.554 17.637-7.182v65.436c0 4.634 1.409 8.945 3.82 12.528-2.343 2.625-3.785 6.066-3.814 9.847-37.962-1.285-55.007-12.731-55.007-36.629zm412 44.253c0 4.136-3.364 7.5-7.5 7.5h-327c-4.136 0-7.5-3.364-7.5-7.5l-.01-7.5h155.933c4.142 0 7.5-3.358 7.5-7.5s-3.358-7.5-7.5-7.5h-148.423c-4.136 0-7.5-3.364-7.5-7.5v-200c0-4.136 3.364-7.5 7.5-7.5h160.705l-32.368 100.705c-.733 2.282-.332 4.776 1.08 6.713s3.664 3.082 6.061 3.082h38.711l-25.323 78.785c-1.268 3.943.902 8.167 4.845 9.435 3.941 1.266 8.167-.902 9.435-4.845l28.471-88.58c.733-2.282.332-4.776-1.08-6.713s-3.664-3.082-6.061-3.082h-38.711l32.368-100.705c.733-2.282.332-4.776-1.08-6.713s-3.664-3.082-6.061-3.082h-80.462l-3.317-18.727c6.329 2.459 13.52 3.727 21.398 3.727 30.861 0 48.308-16.44 49.414-46.387 2.921-.687 8.029-.687 10.95 0 1.107 29.947 18.553 46.387 49.414 46.387 7.878 0 15.069-1.269 21.398-3.727l-3.317 18.727h-35.476c-4.142 0-7.5 3.358-7.5 7.5s3.358 7.5 7.5 7.5h126.006c4.136 0 7.5 3.364 7.5 7.5v200c0 4.136-3.364 7.5-7.5 7.5h-148.577c-4.142 0-7.5 3.358-7.5 7.5s3.358 7.5 7.5 7.5l148.393-.009c.062.002.122.009.184.009.123 0 .244-.007.367-.009h7.133zm14.994-7.625c-.029-3.78-1.471-7.222-3.814-9.847 2.411-3.583 3.82-7.894 3.82-12.528v-65.441c17.781 5.98 55 21.988 55 51.187 0 23.899-17.045 35.345-55.006 36.629z"/></g></g></svg>